<?xml version="1.0" encoding="UTF-8" standalone="no"?>
<!-- Created with Inkscape (http://www.inkscape.org/) -->

<svg
   xmlns:dc="http://purl.org/dc/elements/1.1/"
   xmlns:cc="http://creativecommons.org/ns#"
   xmlns:rdf="http://www.w3.org/1999/02/22-rdf-syntax-ns#"
   xmlns:svg="http://www.w3.org/2000/svg"
   xmlns="http://www.w3.org/2000/svg"
   xmlns:xlink="http://www.w3.org/1999/xlink"
   xmlns:sodipodi="http://sodipodi.sourceforge.net/DTD/sodipodi-0.dtd"
   xmlns:inkscape="http://www.inkscape.org/namespaces/inkscape"
   id="svg2"
   version="1.1"
   inkscape:version="0.91 r13725"
   xml:space="preserve"
   width="1280"
   height="1280"
   viewBox="0 0 1280 1280"
   sodipodi:docname="Atom_App.svg"><metadata
     id="metadata8"><rdf:RDF><cc:Work
         rdf:about=""><dc:format>image/svg+xml</dc:format><dc:type
           rdf:resource="http://purl.org/dc/dcmitype/StillImage" /><dc:title></dc:title></cc:Work></rdf:RDF></metadata><defs
     id="defs6"><clipPath
       clipPathUnits="userSpaceOnUse"
       id="clipPath16"><path
         d="m 0,1024 1024,0 L 1024,0 0,0 0,1024 Z"
         id="path18"
         inkscape:connector-curvature="0" /></clipPath><clipPath
       clipPathUnits="userSpaceOnUse"
       id="clipPath24"><path
         d="m 35.0048,975.995 956.0002,0 0,-954.9998 -956.0002,0 0,954.9998 z"
         id="path26"
         inkscape:connector-curvature="0" /></clipPath><clipPath
       clipPathUnits="userSpaceOnUse"
       id="clipPath28"><path
         d="m 35.0048,975.995 956.0002,0 0,-954.9998 -956.0002,0 0,954.9998 z"
         id="path30"
         inkscape:connector-curvature="0" /></clipPath><mask
       maskUnits="userSpaceOnUse"
       x="0"
       y="0"
       width="1"
       height="1"
       id="mask32"><g
         id="g34"><g
           clip-path="url(#clipPath28)"
           id="g36"><g
             id="g38"><g
               transform="matrix(956,0,0,955,35.004837,20.995178)"
               id="g40"><image
                 sodipodi:absref="/Users/yann/Documents/CAPES/2018/CléLinux/Look/Icones_Applications/Atom/atom_icon_img0.png"
                 xlink:href="atom_icon_img0.png"
                 id="image42"
                 transform="matrix(1,0,0,-1,0,1)"
                 preserveAspectRatio="none"
                 height="1"
                 width="1" /></g></g></g></g></mask><mask
       maskUnits="userSpaceOnUse"
       x="0"
       y="0"
       width="1"
       height="1"
       id="mask44"><image
         sodipodi:absref="/Users/yann/Documents/CAPES/2018/CléLinux/Look/Icones_Applications/Atom/atom_icon_img1.png"
         xlink:href="atom_icon_img1.png"
         id="image46"
         preserveAspectRatio="none"
         height="1"
         width="1" /></mask><clipPath
       clipPathUnits="userSpaceOnUse"
       id="clipPath66"><path
         d="M 60.899,509.1 C 60.899,259.412 263.312,57 513,57 l 0,0 c 249.688,0 452.101,202.412 452.101,452.1 l 0,0 c 0,249.689 -202.413,452.101 -452.101,452.101 l 0,0 C 263.312,961.201 60.899,758.789 60.899,509.1"
         id="path68"
         inkscape:connector-curvature="0" /></clipPath><linearGradient
       x1="0"
       y1="0"
       x2="1"
       y2="0"
       gradientUnits="userSpaceOnUse"
       gradientTransform="matrix(-78.811089,-900.81488,-900.81488,78.811089,552.40552,959.50812)"
       spreadMethod="pad"
       id="linearGradient74"><stop
         style="stop-opacity:1;stop-color:#b4e19b"
         offset="0"
         id="stop76" /><stop
         style="stop-opacity:1;stop-color:#0ca273"
         offset="1"
         id="stop78" /></linearGradient><clipPath
       clipPathUnits="userSpaceOnUse"
       id="clipPath86"><path
         d="m 0,1024 1024,0 L 1024,0 0,0 0,1024 Z"
         id="path88"
         inkscape:connector-curvature="0" /></clipPath><clipPath
       clipPathUnits="userSpaceOnUse"
       id="clipPath94"><path
         d="m 175.686,804.314 675,0 0,-616 -675,0 0,616 z"
         id="path96"
         inkscape:connector-curvature="0" /></clipPath><clipPath
       clipPathUnits="userSpaceOnUse"
       id="clipPath98"><path
         d="m 175.686,804.314 675,0 0,-616 -675,0 0,616 z"
         id="path100"
         inkscape:connector-curvature="0" /></clipPath><mask
       maskUnits="userSpaceOnUse"
       x="0"
       y="0"
       width="1"
       height="1"
       id="mask102"><g
         id="g104"><g
           clip-path="url(#clipPath98)"
           id="g106"><g
             id="g108"><g
               transform="matrix(675,0,0,616,175.68558,188.31445)"
               id="g110"><image
                 sodipodi:absref="/Users/yann/Documents/CAPES/2018/CléLinux/Look/Icones_Applications/Atom/atom_icon_img3.png"
                 xlink:href="atom_icon_img3.png"
                 id="image112"
                 transform="matrix(1,0,0,-1,0,1)"
                 preserveAspectRatio="none"
                 height="1"
                 width="1" /></g></g></g></g></mask><mask
       maskUnits="userSpaceOnUse"
       x="0"
       y="0"
       width="1"
       height="1"
       id="mask114"><image
         sodipodi:absref="/Users/yann/Documents/CAPES/2018/CléLinux/Look/Icones_Applications/Atom/atom_icon_img4.png"
         xlink:href="atom_icon_img4.png"
         id="image116"
         preserveAspectRatio="none"
         height="1"
         width="1" /></mask></defs><sodipodi:namedview
     pagecolor="#ffffff"
     bordercolor="#666666"
     borderopacity="1"
     objecttolerance="10"
     gridtolerance="10"
     guidetolerance="10"
     inkscape:pageopacity="0"
     inkscape:pageshadow="2"
     inkscape:window-width="750"
     inkscape:window-height="480"
     id="namedview4"
     showgrid="false"
     inkscape:zoom="0.184375"
     inkscape:cx="640"
     inkscape:cy="640"
     inkscape:window-x="0"
     inkscape:window-y="23"
     inkscape:window-maximized="0"
     inkscape:current-layer="g10" /><g
     id="g10"
     inkscape:groupmode="layer"
     inkscape:label="atom_icon"
     transform="matrix(1.25,0,0,-1.25,0,1280)"><g
       id="g62"><g
         id="g64"
         clip-path="url(#clipPath66)"><g
           id="g70"><g
             id="g72"><path
               d="M 60.899,509.1 C 60.899,259.412 263.312,57 513,57 l 0,0 c 249.688,0 452.101,202.412 452.101,452.1 l 0,0 c 0,249.689 -202.413,452.101 -452.101,452.101 l 0,0 C 263.312,961.201 60.899,758.789 60.899,509.1"
               style="fill:url(#linearGradient74);stroke:none"
               id="path80"
               inkscape:connector-curvature="0" /></g></g></g></g><g
       id="g82"><g
         id="g84"
         clip-path="url(#clipPath86)"><g
           id="g90"><g
             id="g92" /><g
             id="g118"><g
               clip-path="url(#clipPath94)"
               id="g120"
               style="opacity:0.19999701"><g
                 id="g122"><g
                   id="g124" /><g
                   mask="url(#mask102)"
                   id="g126"><g
                     transform="matrix(675,0,0,616,175.68558,188.31445)"
                     id="g128"><image
                       sodipodi:absref="/Users/yann/Documents/CAPES/2018/CléLinux/Look/Icones_Applications/Atom/atom_icon_img5.png"
                       xlink:href="atom_icon_img5.png"
                       id="image130"
                       mask="url(#mask114)"
                       transform="matrix(1,0,0,-1,0,1)"
                       preserveAspectRatio="none"
                       height="1"
                       width="1" /></g></g></g></g></g></g><g
           id="g132"
           transform="translate(475.9966,506.7481)"><path
             d="m 0,0 c 0,-20.943 16.978,-37.921 37.921,-37.921 20.943,0 37.921,16.978 37.921,37.921 0,20.943 -16.978,37.921 -37.921,37.921 C 16.978,37.921 0,20.943 0,0 m -82.448,70.673 c -6.221,-10.195 -12.173,-20.437 -17.861,-30.689 -7.39,20.693 -13.548,40.99 -18.372,60.578 19.158,3.375 39.402,5.892 60.427,7.532 -8.282,-12.106 -16.367,-24.593 -24.194,-37.421 m 354.086,16.345 c -60.401,26.478 -141.346,43.425 -227.924,47.719 -16.919,0.84 -33.667,1.17 -50.14,1.017 29.332,37.197 60.176,68.776 90.413,92.212 45.793,35.491 84.964,47.967 107.471,34.234 21.394,-13.054 28.68,-50.942 19.987,-103.949 -1.136,-6.932 3.561,-13.473 10.494,-14.61 6.924,-1.136 13.473,3.561 14.61,10.493 4.996,30.47 5.236,56.783 0.716,78.211 -5.095,24.147 -16.049,41.497 -32.557,51.57 -32.494,19.827 -80.901,7.098 -136.304,-35.843 -36.278,-28.117 -73.253,-67.189 -107.606,-113.287 -29.78,-1.495 -58.341,-4.642 -84.953,-9.377 -2.222,11.497 -3.947,22.688 -5.127,33.487 -6.29,57.592 3.568,97.504 27.047,109.501 22.318,11.405 58.419,-2.209 99.047,-37.347 5.314,-4.595 13.346,-4.014 17.941,1.3 4.595,5.313 4.013,13.346 -1.3,17.941 -23.354,20.198 -45.654,34.169 -66.28,41.525 -23.244,8.291 -43.761,8.032 -60.982,-0.767 -33.896,-17.319 -48.372,-65.233 -40.76,-134.915 1.26,-11.54 3.106,-23.491 5.487,-35.76 -13.572,-3.08 -26.525,-6.602 -38.731,-10.566 -66.67,-21.652 -104.424,-54.514 -106.31,-92.532 -0.956,-19.273 7.192,-38.052 24.218,-55.815 15.108,-15.764 36.912,-30.346 64.805,-43.344 6.367,-2.966 13.934,-0.211 16.902,6.157 2.967,6.367 0.21,13.934 -6.157,16.901 -48.496,22.598 -75.599,49.877 -74.361,74.842 1.306,26.334 33.658,51.701 88.76,69.597 11.443,3.716 23.59,7.026 36.33,9.926 6.728,-27.521 15.959,-56.328 27.43,-85.619 -27.13,-54.048 -46.218,-107.367 -55.011,-154.533 -12.845,-68.911 -2.024,-117.78 30.469,-137.606 10.037,-6.125 21.526,-9.193 34.344,-9.192 8.218,0 16.984,1.261 26.259,3.787 21.067,5.738 44.297,17.92 69.046,36.209 5.649,4.175 6.845,12.139 2.67,17.788 -4.175,5.651 -12.14,6.846 -17.789,2.671 -43.028,-31.798 -79.945,-42.566 -101.28,-29.549 -22.508,13.734 -29.328,54.276 -18.711,111.229 7.294,39.131 22.126,82.88 43.063,127.822 6.433,-14.58 13.388,-29.206 20.835,-43.782 39.443,-77.192 88.112,-144.054 137.043,-188.27 38.473,-34.766 74.371,-52.759 104.173,-52.757 10.485,0 20.218,2.227 29.039,6.735 17.185,8.78 29.402,25.206 36.311,48.821 6.132,20.956 7.903,47.126 5.263,77.786 -5.784,67.197 -31.739,148.764 -73.081,229.677 -3.195,6.255 -10.858,8.735 -17.114,5.539 -6.255,-3.197 -8.735,-10.859 -5.538,-17.114 39.303,-76.922 64.959,-157.212 70.389,-220.283 4.588,-53.306 -5.546,-90.401 -27.804,-101.773 -23.479,-11.994 -61.598,3.399 -104.583,42.242 -46.693,42.195 -93.375,106.465 -131.445,180.972 -10.622,20.788 -20.202,41.652 -28.648,62.29 8.465,16.262 17.669,32.579 27.563,48.794 11.147,18.267 22.807,35.818 34.817,52.479 22.228,0.759 45.121,0.581 68.371,-0.572 83.565,-4.145 161.331,-20.343 218.97,-45.61 53.06,-23.26 82.743,-51.705 81.436,-78.039 -1.241,-25.032 -31.039,-49.539 -81.754,-67.239 -6.632,-2.315 -10.132,-9.568 -7.817,-16.2 1.83,-5.246 6.749,-8.532 12.008,-8.532 1.39,0 2.804,0.23 4.191,0.715 29.151,10.174 52.38,22.539 69.041,36.751 18.775,16.015 28.781,33.93 29.739,53.244 1.886,38.018 -32.432,74.455 -96.631,102.598"
             style="fill:#ffffff;fill-opacity:1;fill-rule:nonzero;stroke:none"
             id="path134"
             inkscape:connector-curvature="0" /></g></g></g></g></svg>